<svg width="1320" height="325" viewBox="0 0 1320 325" fill="none" xmlns="http://www.w3.org/2000/svg">
<path d="M0 20.016C0 8.96147 8.96147 0 20.016 0H1299.98C1311.04 0 1320 8.96147 1320 20.016V304.984C1320 316.039 1311.04 325 1299.98 325H20.016C8.9615 325 0 316.039 0 304.984V20.016Z" fill="#F9F3F1"/>
<path d="M410.153 161.43L482.408 139.368L431.197 290.41L551.033 233.761L527.905 338.303L641.453 285.037L658.057 331.532" stroke="#E9DCD6" stroke-width="77.5402" stroke-miterlimit="10" stroke-linecap="square"/>
<path d="M634.452 -221.463C631.314 -192.067 628.046 -162.75 624.462 -134.312C621.841 -109.762 602.207 -97.0471 580.53 -104.309C558.935 -111.692 536.757 -118.742 514.404 -126.069C492.401 -132.84 468.091 -123.125 460.09 -102.687C451.857 -81.3587 443.474 -59.2614 434.554 -36.6287C425.868 -14.8873 401.638 -5.29465 385.147 -20.0815C365.123 -37.6916 349.167 -60.0635 338.304 -88.4682" stroke="#58E9B6" stroke-width="118.258" stroke-miterlimit="10" stroke-linecap="round"/>
<path d="M52.9382 266.508C52.1479 250.898 51.4281 235.317 50.9366 220.173C50.2767 207.135 59.0513 198.986 70.4458 201.127C81.8093 203.338 93.4371 205.329 105.175 207.453C116.692 209.313 128.04 202.375 130.394 191.077C132.79 179.295 135.201 167.099 137.836 154.583C140.427 142.55 151.744 135.683 161.155 142.155C172.555 149.834 182.307 160.313 190.001 174.337" stroke="#FFBCFF" stroke-width="68.3481" stroke-miterlimit="10" stroke-linecap="round"/>
</svg>
